<?xml version="1.0" encoding="UTF-8"?>
<svg data-name="Layer 1" version="1.1" viewBox="0 0 16 16" xmlns="http://www.w3.org/2000/svg" xmlns:cc="http://creativecommons.org/ns#" xmlns:dc="http://purl.org/dc/elements/1.1/" xmlns:rdf="http://www.w3.org/1999/02/22-rdf-syntax-ns#">
<metadata>
<rdf:RDF>
<cc:Work rdf:about="">
<dc:format>image/svg+xml</dc:format>
<dc:type rdf:resource="http://purl.org/dc/dcmitype/StillImage"/>
<dc:title>heading-icon</dc:title>
</cc:Work>
</rdf:RDF>
</metadata>
<defs>
<style>.cls-1{fill:#ffffff;}</style>
</defs>
<title>heading-icon</title>
<g fill="#fff">
<path class="cls-1" transform="translate(-866.33 -381.07)" d="m874.25 381.07a8 8 0 0 0 -7.92 7.92 8 8 0 0 0 7.92 -7.92z"/>
<path class="cls-1" transform="translate(-866.33 -381.07)" d="M882.33,389a8,8,0,0,0-7.92-7.92A8,8,0,0,0,882.33,389Z"/>
<path class="cls-1" transform="translate(-866.33 -381.07)" d="m882.33 389.15a8 8 0 0 0 -7.92 7.92 8 8 0 0 0 7.92 -7.92z"/>
<path class="cls-1" transform="translate(-866.33 -381.07)" d="m866.33 389.15a8 8 0 0 0 7.92 7.92 8 8 0 0 0 -7.92 -7.92z"/>
</g>
</svg>
